<svg width="60" height="61" viewBox="0 0 60 61" fill="none" xmlns="http://www.w3.org/2000/svg">
<path d="M30.4364 54.3005V19.3914M26.3739 17.2972C26.8061 17.3942 27.2615 17.2753 27.5726 16.9642C27.8838 16.653 28.0025 16.1975 27.9057 15.7655C27.5178 14.181 26.0889 8.87539 24.6218 7.40823C22.7939 5.58033 19.8189 5.57271 18 7.39157C16.1813 9.2103 16.1886 12.1853 18.0167 14.0133C19.5078 15.5045 24.7895 16.9094 26.3739 17.2972ZM30.8103 15.7653C30.7133 16.1975 30.8322 16.6529 31.1434 16.9641C31.4545 17.2752 31.9101 17.3939 32.3421 17.2971C33.9265 16.9092 39.2321 15.4804 40.6993 14.0132C42.5272 12.1853 42.5348 9.21031 40.716 7.39145C38.8972 5.57272 35.9222 5.58007 34.0942 7.4081C32.603 8.89928 31.1982 14.1809 30.8103 15.7653ZM7.74546 31.6096H52.2545C53.2185 31.6096 54 30.8282 54 29.8642V21.1369C54 20.1729 53.2185 19.3914 52.2545 19.3914H7.74545C6.78147 19.3914 6 20.1729 6 21.1369V29.8642C6 30.8282 6.78147 31.6096 7.74546 31.6096ZM49.6364 31.6096V52.5551C49.6364 53.5191 48.8549 54.3005 47.8909 54.3005H12.1091C11.1451 54.3005 10.3636 53.5191 10.3636 52.5551V31.6096H49.6364Z" stroke="#A1927A" stroke-width="2" stroke-linecap="round" stroke-linejoin="round"/>
</svg>
