<svg width="128" height="128" viewBox="0 0 128 128" fill="none" xmlns="http://www.w3.org/2000/svg">
<g clip-path="url(#clip0_355_4177)">
<path d="M28 0C29.0609 0 30.0783 0.421427 30.8284 1.17157C31.5786 1.92172 32 2.93913 32 4V8H96V4C96 2.93913 96.4214 1.92172 97.1716 1.17157C97.9217 0.421427 98.9391 0 100 0C101.061 0 102.078 0.421427 102.828 1.17157C103.579 1.92172 104 2.93913 104 4V8H112C116.243 8 120.313 9.68571 123.314 12.6863C126.314 15.6869 128 19.7565 128 24V112C128 116.243 126.314 120.313 123.314 123.314C120.313 126.314 116.243 128 112 128H16C11.7565 128 7.68687 126.314 4.68629 123.314C1.68571 120.313 0 116.243 0 112V24C0 19.7565 1.68571 15.6869 4.68629 12.6863C7.68687 9.68571 11.7565 8 16 8H24V4C24 2.93913 24.4214 1.92172 25.1716 1.17157C25.9217 0.421427 26.9391 0 28 0V0ZM16 16C13.8783 16 11.8434 16.8429 10.3431 18.3431C8.84285 19.8434 8 21.8783 8 24V112C8 114.122 8.84285 116.157 10.3431 117.657C11.8434 119.157 13.8783 120 16 120H112C114.122 120 116.157 119.157 117.657 117.657C119.157 116.157 120 114.122 120 112V24C120 21.8783 119.157 19.8434 117.657 18.3431C116.157 16.8429 114.122 16 112 16H16Z" fill="#8A8A8E"/>
<path d="M20 32C20 30.9391 20.4214 29.9217 21.1716 29.1716C21.9217 28.4214 22.9391 28 24 28H104C105.061 28 106.078 28.4214 106.828 29.1716C107.579 29.9217 108 30.9391 108 32V40C108 41.0609 107.579 42.0783 106.828 42.8284C106.078 43.5786 105.061 44 104 44H24C22.9391 44 21.9217 43.5786 21.1716 42.8284C20.4214 42.0783 20 41.0609 20 40V32ZM88 60C88 58.9391 88.4214 57.9217 89.1716 57.1716C89.9217 56.4214 90.9391 56 92 56H100C101.061 56 102.078 56.4214 102.828 57.1716C103.579 57.9217 104 58.9391 104 60V68C104 69.0609 103.579 70.0783 102.828 70.8284C102.078 71.5786 101.061 72 100 72H92C90.9391 72 89.9217 71.5786 89.1716 70.8284C88.4214 70.0783 88 69.0609 88 68V60ZM64 60C64 58.9391 64.4214 57.9217 65.1716 57.1716C65.9217 56.4214 66.9391 56 68 56H76C77.0609 56 78.0783 56.4214 78.8284 57.1716C79.5786 57.9217 80 58.9391 80 60V68C80 69.0609 79.5786 70.0783 78.8284 70.8284C78.0783 71.5786 77.0609 72 76 72H68C66.9391 72 65.9217 71.5786 65.1716 70.8284C64.4214 70.0783 64 69.0609 64 68V60ZM24 84C24 82.9391 24.4214 81.9217 25.1716 81.1716C25.9217 80.4214 26.9391 80 28 80H36C37.0609 80 38.0783 80.4214 38.8284 81.1716C39.5786 81.9217 40 82.9391 40 84V92C40 93.0609 39.5786 94.0783 38.8284 94.8284C38.0783 95.5786 37.0609 96 36 96H28C26.9391 96 25.9217 95.5786 25.1716 94.8284C24.4214 94.0783 24 93.0609 24 92V84ZM48 84C48 82.9391 48.4214 81.9217 49.1716 81.1716C49.9217 80.4214 50.9391 80 52 80H60C61.0609 80 62.0783 80.4214 62.8284 81.1716C63.5786 81.9217 64 82.9391 64 84V92C64 93.0609 63.5786 94.0783 62.8284 94.8284C62.0783 95.5786 61.0609 96 60 96H52C50.9391 96 49.9217 95.5786 49.1716 94.8284C48.4214 94.0783 48 93.0609 48 92V84Z" fill="#8A8A8E"/>
</g>
<defs>
<clipPath id="clip0_355_4177">
<rect width="128" height="128" fill="white"/>
</clipPath>
</defs>
</svg>
