<svg width="100" height="100" viewBox="0 0 100 100" fill="none" xmlns="http://www.w3.org/2000/svg">
<g clip-path="url(#clip0_355_4169)">
<path fill-rule="evenodd" clip-rule="evenodd" d="M10.4987 27.2654C10.4987 20.5705 15.0355 14.9352 21.2025 13.2662C21.3565 12.0867 21.6619 10.476 22.2883 8.80581C22.9295 7.0958 23.9971 5.08298 25.8139 3.46802C27.7229 1.77114 30.2371 0.718262 33.2812 0.718262C35.7468 0.718262 37.7455 2.71699 37.7455 5.18255C37.7455 7.6481 35.7468 9.64681 33.2812 9.64681C32.4322 9.64681 32.0266 9.89167 31.7457 10.1413C31.3727 10.4729 30.9804 11.0555 30.6484 11.9409C30.4288 12.5265 30.2744 13.1411 30.1681 13.7118C35.6253 15.7939 39.5016 21.0769 39.5016 27.2654C39.5016 35.2743 33.0091 41.7668 25.0002 41.7668C16.9912 41.7668 10.4987 35.2743 10.4987 27.2654ZM0 53.38C0 51.4076 1.59899 49.8086 3.57143 49.8086H96.4286C98.4007 49.8086 100 51.4076 100 53.38V63.3928H0V53.38ZM0 72.3214V96.4285C0 98.4007 1.59899 100 3.57143 100H96.4286C98.4007 100 100 98.4007 100 96.4285V72.3214H0Z" fill="#8A8A8E"/>
</g>
<defs>
<clipPath id="clip0_355_4169">
<rect width="100" height="100" fill="white"/>
</clipPath>
</defs>
</svg>
