<svg width="140" height="140" viewBox="0 0 140 140" fill="none" xmlns="http://www.w3.org/2000/svg">
<path d="M18.4919 43.3999L70.0001 73.2081L121.158 43.5747M70.0001 126.058V73.1497M99.1668 77.2331V55.8833L43.8085 23.9164M57.9251 14.4665L26.7751 31.7917C19.7168 35.7 13.9419 45.4999 13.9419 53.5499V86.5084C13.9419 94.5584 19.7168 104.358 26.7751 108.267L57.9251 125.592C64.5751 129.267 75.4834 129.267 82.1334 125.592L113.284 108.267C120.342 104.358 126.117 94.5584 126.117 86.5084V53.5499C126.117 45.4999 120.342 35.7 113.284 31.7917L82.1334 14.4665C75.4251 10.7332 64.5751 10.7332 57.9251 14.4665Z" stroke="#8A8A8E" stroke-width="9" stroke-linecap="round" stroke-linejoin="round"/>
</svg>
