<svg width="140" height="140" viewBox="0 0 140 140" fill="none" xmlns="http://www.w3.org/2000/svg">
<path d="M119.583 65.9164V41.0666C119.583 17.5582 114.1 11.6665 92.0498 11.6665H47.9498C25.8998 11.6665 20.4165 17.5582 20.4165 41.0666V106.75C20.4165 122.266 28.9332 125.942 39.2582 114.858L39.3164 114.8C44.0998 109.725 51.3914 110.133 55.5331 115.675L61.4248 123.55M46.6665 40.8332H93.3332M52.4998 64.1665H87.4998M103.245 89.1348C104.995 95.4348 109.895 100.335 116.195 102.085M106.231 86.1598L85.5808 106.81C84.7642 107.626 84.0057 109.143 83.8307 110.251L82.7224 118.127C82.314 120.985 84.2974 122.968 87.1558 122.56L95.0308 121.452C96.1391 121.277 97.7141 120.518 98.4725 119.701L119.123 99.0516C122.681 95.4932 124.373 91.3516 119.123 86.1016C113.931 80.9099 109.789 82.6014 106.231 86.1598Z" stroke="#8A8A8E" stroke-width="9" stroke-miterlimit="10" stroke-linecap="round" stroke-linejoin="round"/>
</svg>
